<svg version="1.0" xmlns="http://www.w3.org/2000/svg"
 width="512.000000pt" height="512.000000pt" viewBox="0 0 512.000000 512.000000"
 preserveAspectRatio="xMidYMid meet">
<metadata>
Created by potrace 1.15, written by Peter Selinger 2001-2017
</metadata>
<g transform="translate(0.000000,512.000000) scale(0.100000,-0.100000)"
fill="#4e73df" stroke="none">
<path d="M303 5051 c-38 -32 -112 -103 -166 -157 -54 -55 -107 -107 -117 -116
-20 -18 -20 -37 -20 -1138 0 -1096 0 -1120 19 -1139 11 -11 36 -23 55 -27 l36
-6 -50 -60 c-46 -55 -62 -88 -42 -88 5 0 45 34 89 75 l81 75 63 0 64 0 -121
-123 c-66 -67 -135 -139 -152 -160 -32 -38 -41 -67 -22 -67 6 0 91 79 189 175
l178 175 64 0 64 0 -221 -222 c-121 -123 -235 -240 -252 -261 -32 -38 -41 -67
-21 -67 6 0 136 124 288 275 l277 275 65 0 64 0 -321 -322 c-176 -178 -335
-340 -352 -361 -33 -38 -41 -67 -21 -67 7 0 181 169 388 375 l377 375 64 0 65
0 -421 -423 c-231 -232 -435 -439 -452 -460 -33 -39 -41 -67 -20 -67 6 0 226
214 488 475 l476 475 64 0 65 0 -521 -522 c-286 -288 -535 -540 -552 -561 -33
-39 -41 -67 -20 -67 6 0 271 259 588 575 l576 575 64 0 65 0 -621 -622 c-341
-343 -635 -640 -652 -661 -33 -39 -41 -67 -20 -67 6 0 316 304 688 675 l676
675 64 0 65 0 -721 -722 c-396 -398 -735 -740 -752 -761 -33 -39 -41 -67 -20
-67 7 0 361 349 788 775 630 629 780 775 802 775 25 0 25 -1 16 -48 -9 -45
-35 -73 -782 -822 -425 -426 -787 -792 -804 -813 -33 -39 -41 -67 -20 -67 7 0
366 353 798 785 l786 785 -4 -67 -4 -68 -762 -765 c-419 -421 -777 -782 -794
-803 -33 -39 -41 -67 -20 -67 7 0 364 352 795 782 l783 782 0 -64 0 -65 -736
-735 c-405 -404 -762 -765 -795 -803 -57 -65 -72 -97 -47 -97 7 0 366 354 799
786 l786 786 6 -59 6 -58 -773 -775 c-425 -426 -787 -792 -804 -813 -33 -39
-41 -67 -20 -67 7 0 371 359 810 797 516 515 799 792 802 782 3 -8 9 -30 14
-49 l9 -35 -793 -796 c-437 -437 -794 -800 -794 -807 0 -25 32 -10 97 47 38
33 390 381 783 775 393 394 718 716 721 716 4 0 12 -21 19 -46 l13 -45 -717
-718 c-394 -394 -716 -723 -716 -729 0 -21 28 -13 67 20 21 17 342 335 714
706 l676 674 18 -46 18 -47 -646 -648 c-356 -356 -647 -653 -647 -659 0 -21
28 -13 67 20 21 17 311 303 644 636 l606 604 21 -37 c12 -20 22 -39 22 -43 0
-3 -261 -268 -580 -587 -319 -320 -580 -587 -580 -593 0 -21 28 -13 67 20 21
17 282 275 580 572 298 297 544 538 546 536 2 -3 14 -20 27 -38 l23 -34 -522
-522 c-286 -287 -521 -528 -521 -534 0 -21 28 -13 67 20 21 17 255 248 521
512 l483 481 29 -35 29 -35 -465 -466 c-255 -256 -464 -471 -464 -477 0 -21
28 -13 67 20 21 17 230 223 465 457 l428 426 32 -32 32 -33 -412 -413 c-227
-228 -412 -419 -412 -425 0 -21 29 -13 67 20 21 17 208 201 415 407 l378 376
32 -32 32 -33 -362 -363 c-199 -200 -362 -369 -362 -376 0 -20 29 -12 67 21
21 17 187 179 368 360 l330 328 35 -29 35 -29 -317 -320 c-175 -176 -318 -325
-318 -331 0 -20 29 -11 67 21 21 17 167 160 324 316 l287 285 33 -23 c19 -13
36 -25 38 -27 3 -2 -120 -129 -272 -282 -152 -153 -277 -284 -277 -290 0 -45
87 29 380 323 118 119 218 216 222 216 4 0 23 -10 43 -21 l36 -22 -241 -242
c-132 -134 -240 -248 -240 -254 0 -20 29 -11 67 21 21 17 133 126 250 241
l211 210 47 -17 46 -18 -210 -213 c-116 -118 -211 -218 -211 -224 0 -20 29
-11 67 21 21 17 120 112 220 211 l181 180 46 -13 c25 -7 46 -15 46 -18 0 -3
-81 -87 -180 -188 -99 -101 -180 -188 -180 -194 0 -40 91 34 294 238 l128 130
37 -10 c20 -5 42 -11 50 -14 8 -3 -46 -65 -148 -169 -88 -90 -161 -169 -161
-175 0 -19 30 -10 67 22 21 17 101 94 178 169 l140 138 58 -6 57 -6 -150 -153
c-82 -85 -150 -158 -150 -164 0 -38 93 35 265 209 l100 101 64 0 64 0 -147
-150 c-80 -82 -146 -154 -146 -160 0 -19 30 -10 67 22 21 17 97 89 168 159
l130 127 67 4 67 4 -150 -153 c-82 -84 -149 -157 -149 -163 0 -19 30 -10 67
22 21 17 101 94 178 169 l140 138 75 16 c41 8 77 15 79 15 2 0 -73 -79 -168
-175 -94 -96 -171 -179 -171 -185 0 -19 29 -10 67 22 21 17 115 107 209 200
l170 169 108 44 108 44 -231 -234 c-127 -128 -231 -238 -231 -244 0 -20 29
-11 67 21 21 17 160 151 308 297 170 168 301 288 355 326 112 79 310 277 390
390 34 50 109 137 165 195 126 130 165 177 165 195 0 25 -14 17 -92 -55 l-76
-70 43 106 c26 63 60 127 84 157 53 64 57 105 6 57 -22 -20 -22 -20 3 82 23
94 25 124 26 333 1 127 -1 259 -3 295 -3 36 -1 76 4 89 7 20 5 23 -8 18 -13
-5 -19 3 -27 36 -6 23 -13 48 -16 56 -2 7 9 29 26 47 29 33 39 64 22 64 -5 0
-17 -9 -27 -20 -28 -30 -41 -24 -55 25 l-12 44 51 61 c46 56 63 90 44 90 -3 0
-32 -22 -64 -50 l-57 -50 -18 46 -17 45 50 52 c76 80 113 126 113 142 0 26
-15 16 -103 -65 l-85 -80 -21 36 c-12 19 -21 38 -21 42 0 4 25 32 56 62 125
123 198 220 164 220 -5 0 -63 -52 -130 -116 -66 -64 -122 -115 -123 -113 -2 2
-14 19 -27 37 l-23 34 125 126 c68 70 139 144 156 165 32 37 41 67 22 67 -6 0
-83 -71 -171 -157 l-161 -158 -28 35 -29 35 168 170 c92 94 182 187 199 208
32 38 41 67 21 67 -5 0 -102 -91 -215 -202 l-205 -202 -32 32 -32 32 216 218
c118 119 230 234 247 255 32 38 41 67 21 67 -6 0 -125 -113 -265 -252 l-255
-252 -32 32 -32 32 266 268 c146 147 280 284 297 305 32 38 41 67 21 67 -6 0
-149 -137 -318 -304 l-306 -305 -35 29 -35 29 321 323 c176 178 335 340 352
361 33 38 41 67 21 67 -7 0 -175 -163 -375 -361 l-363 -361 -33 23 c-18 12
-35 24 -38 26 -2 2 167 176 376 386 209 210 395 399 412 420 33 38 41 67 20
67 -6 0 -201 -189 -433 -420 -231 -231 -424 -420 -427 -420 -4 0 -23 10 -43
22 l-37 21 444 446 c245 245 459 463 476 484 33 39 41 67 20 67 -6 0 -231
-219 -499 -486 l-487 -486 -47 17 -47 18 514 516 c283 284 529 533 546 554 33
39 41 67 20 67 -6 0 -262 -250 -569 -556 l-558 -557 -45 13 c-25 7 -46 15 -46
19 0 3 250 256 556 561 306 305 582 585 615 623 57 65 72 97 47 97 -6 0 -298
-285 -647 -634 l-636 -633 -35 9 c-19 5 -41 11 -49 14 -10 3 211 231 622 643
350 350 637 643 637 649 0 21 -28 13 -67 -20 -21 -17 -315 -307 -653 -644
l-615 -613 -58 6 -58 6 625 627 c344 344 626 632 626 638 0 25 -32 10 -97 -47
-38 -33 -327 -318 -643 -635 l-575 -576 -51 0 c-28 0 -54 3 -58 7 -3 4 270
284 609 623 338 339 615 622 615 628 0 21 -28 13 -67 -20 -21 -17 -310 -303
-643 -634 l-605 -602 -68 -4 -67 -4 625 626 c344 345 625 632 625 638 0 25
-32 10 -97 -47 -38 -33 -331 -323 -653 -645 -322 -322 -588 -586 -592 -586 -5
0 -8 26 -8 57 l0 57 575 576 c316 317 575 582 575 588 0 21 -28 13 -67 -20
-21 -17 -273 -266 -560 -552 l-523 -521 0 65 0 64 475 476 c261 262 475 482
475 488 0 21 -28 13 -67 -20 -21 -17 -228 -221 -460 -452 l-423 -421 0 65 0
64 375 377 c206 207 375 381 375 388 0 20 -29 12 -67 -21 -21 -17 -183 -176
-360 -352 l-323 -321 0 64 0 65 275 277 c151 152 275 282 275 288 0 20 -29 11
-67 -21 -21 -17 -138 -131 -260 -252 l-223 -221 0 64 0 64 175 178 c96 98 175
183 175 189 0 38 -92 -35 -269 -213 -86 -87 -108 -104 -122 -96 -10 5 -34 9
-55 9 l-37 0 142 145 c77 80 141 150 141 155 0 38 -94 -36 -260 -204 l-95 -96
-64 0 -64 0 142 145 c77 80 141 150 141 155 0 38 -94 -36 -260 -204 l-95 -96
-64 0 -64 0 142 145 c77 80 141 150 141 155 0 38 -94 -36 -260 -204 l-95 -96
-64 0 -64 0 142 145 c77 80 141 150 141 155 0 38 -94 -36 -260 -204 l-95 -96
-64 0 -64 0 142 145 c77 80 141 150 141 155 0 38 -94 -36 -260 -204 l-95 -96
-64 0 -64 0 142 145 c77 80 141 150 141 155 0 38 -94 -36 -260 -204 l-95 -96
-64 0 -64 0 142 145 c77 80 141 150 141 155 0 38 -94 -36 -260 -204 l-95 -96
-64 0 -64 0 142 145 c77 80 141 150 141 155 0 38 -94 -36 -260 -204 l-95 -96
-64 0 -64 0 142 145 c77 80 141 150 141 155 0 38 -94 -36 -260 -204 l-95 -96
-64 0 -64 0 142 145 c77 80 141 150 141 155 0 38 -94 -36 -260 -204 l-95 -96
-64 0 -64 0 142 145 c77 80 141 150 141 155 0 38 -94 -36 -260 -204 l-95 -96
-64 0 -64 0 142 145 c77 80 141 150 141 155 0 38 -94 -36 -260 -204 l-95 -96
-64 0 -64 0 142 145 c77 80 141 150 141 155 0 38 -94 -36 -260 -204 l-95 -96
-64 0 -64 0 142 145 c77 80 141 150 141 155 0 38 -94 -36 -260 -204 l-95 -96
-64 0 -64 0 142 145 c77 80 141 150 141 155 0 23 -34 6 -97 -49z m2282 -460
c35 -107 138 -210 248 -247 l47 -16 0 -278 0 -277 -92 -33 c-201 -70 -412
-190 -568 -324 l-65 -56 -842 0 -841 0 -16 48 c-37 109 -140 212 -247 247
l-49 17 0 328 0 328 48 16 c109 37 212 140 247 247 l17 49 1048 0 1048 0 17
-49z m695 -1671 l0 -760 -165 0 -165 0 0 39 c0 22 -6 72 -14 113 -70 363 -299
689 -609 869 -42 24 -76 47 -77 51 0 12 154 135 240 190 154 100 306 167 478
209 94 24 228 46 280 48 l32 1 0 -760z m393 730 c191 -37 385 -116 557 -228
88 -57 240 -178 240 -191 0 -4 -12 -13 -26 -19 -127 -58 -355 -261 -451 -402
-124 -182 -223 -454 -223 -611 l0 -39 -165 0 -165 0 0 761 0 761 68 -7 c37 -3
111 -15 165 -25z m-1682 -467 c-6 -10 -19 -28 -30 -40 l-19 -23 -891 0 -891 0
0 40 0 40 920 0 c874 0 920 -1 911 -17z m248 -133 c216 -129 372 -307 474
-538 31 -68 70 -216 81 -299 l7 -53 -522 0 -521 0 7 68 c18 177 74 379 149
538 71 149 196 334 226 334 9 0 54 -22 99 -50z m2393 3 c179 -238 293 -528
323 -825 l7 -68 -521 0 -522 0 7 53 c44 346 246 652 555 837 45 28 90 50 99
50 9 0 32 -21 52 -47z m-2815 -133 l-22 -40 -817 0 -818 0 0 40 0 40 839 0
839 0 -21 -40z m-101 -216 c-3 -9 -9 -27 -12 -40 l-6 -24 -769 0 -769 0 0 40
0 40 781 0 c710 0 781 -1 775 -16z m1078 -756 c-34 -268 -183 -545 -386 -717
-82 -69 -242 -171 -269 -171 -25 0 -142 171 -209 305 -90 181 -145 371 -165
568 l-7 67 521 0 522 0 -7 -52z m486 -709 l0 -761 -67 7 c-262 26 -526 120
-739 264 -89 60 -224 168 -224 180 0 4 30 24 68 45 314 180 547 509 618 874 8
41 14 91 14 113 l0 39 165 0 165 0 0 -761z m490 722 c0 -22 6 -72 14 -113 71
-365 304 -694 619 -874 37 -21 67 -41 67 -45 0 -12 -135 -120 -224 -180 -213
-144 -477 -238 -738 -264 l-68 -7 0 761 0 761 165 0 165 0 0 -39z m1185 -28
c-20 -197 -75 -387 -165 -568 -68 -137 -184 -305 -210 -305 -9 0 -54 22 -99
50 -310 186 -507 484 -556 843 l-6 47 522 0 521 0 -7 -67z"/>
<path d="M1440 4390 c-112 -24 -224 -111 -274 -212 -118 -242 25 -522 292
-569 120 -21 251 21 342 111 202 203 129 548 -137 650 -63 23 -162 32 -223 20z
m206 -186 c130 -80 153 -260 47 -369 -96 -99 -246 -101 -342 -4 -117 116 -86
309 61 384 74 37 164 33 234 -11z"/>
<path d="M4522 678 c-664 -663 -694 -695 -620 -673 24 8 1056 1030 1159 1148
57 65 72 97 47 97 -6 0 -270 -258 -586 -572z"/>
<path d="M4623 578 c-558 -557 -594 -595 -521 -573 24 8 858 832 959 948 57
65 72 97 47 97 -6 0 -225 -213 -485 -472z"/>
<path d="M4723 478 c-452 -450 -492 -495 -421 -472 25 7 661 634 759 747 56
65 72 97 48 97 -7 0 -180 -168 -386 -372z"/>
<path d="M4823 378 c-345 -342 -390 -394 -322 -373 25 8 468 441 560 548 56
64 72 97 48 97 -6 0 -135 -123 -286 -272z"/>
<path d="M4924 278 c-185 -182 -261 -265 -250 -275 14 -14 62 23 192 149 203
197 286 298 244 298 -6 0 -90 -78 -186 -172z"/>
</g>
</svg>
